<?xml version="1.0" encoding="UTF-8"?>
<svg xmlns="http://www.w3.org/2000/svg" xmlns:xlink="http://www.w3.org/1999/xlink" width="1920" height="1080" viewBox="0 0 1920 1080">
<defs>
<g>
<g id="glyph-0-0">
<path d="M 2.265625 -0.179688 C 2.59375 -0.171875 2.835938 -0.230469 2.996094 -0.347656 C 3.148438 -0.464844 3.226562 -0.679688 3.226562 -0.984375 L 3.226562 -1.085938 C 2.546875 -1.078125 1.929688 -1.230469 1.382812 -1.535156 C 0.8125 -1.847656 0.519531 -2.367188 0.507812 -3.09375 C 0.519531 -3.824219 0.8125 -4.34375 1.382812 -4.65625 C 1.929688 -4.953125 2.546875 -5.101562 3.226562 -5.101562 L 3.226562 -5.148438 C 3.226562 -5.460938 3.148438 -5.675781 2.996094 -5.792969 C 2.835938 -5.90625 2.59375 -5.960938 2.265625 -5.957031 L 2.265625 -6.132812 L 5.148438 -6.132812 L 5.148438 -5.957031 C 4.828125 -5.960938 4.585938 -5.90625 4.425781 -5.792969 C 4.269531 -5.675781 4.1875 -5.460938 4.1875 -5.148438 L 4.1875 -5.101562 C 4.878906 -5.101562 5.5 -4.953125 6.046875 -4.65625 C 6.601562 -4.34375 6.886719 -3.824219 6.90625 -3.09375 C 6.890625 -2.367188 6.601562 -1.847656 6.046875 -1.535156 C 5.5 -1.230469 4.878906 -1.078125 4.1875 -1.085938 L 4.1875 -0.984375 C 4.1875 -0.679688 4.269531 -0.464844 4.425781 -0.347656 C 4.585938 -0.230469 4.828125 -0.171875 5.148438 -0.179688 L 5.148438 0 L 2.265625 0 Z M 3.226562 -4.835938 C 2.105469 -4.824219 1.535156 -4.242188 1.519531 -3.09375 C 1.535156 -1.941406 2.105469 -1.363281 3.226562 -1.351562 Z M 4.1875 -1.351562 C 5.300781 -1.363281 5.871094 -1.941406 5.894531 -3.09375 C 5.871094 -4.242188 5.304688 -4.824219 4.1875 -4.835938 Z "/>
</g>
<g id="glyph-0-1">
<path d="M 0 1.109375 L 0 0.671875 L 4.441406 0.671875 L 4.441406 1.109375 Z "/>
</g>
<g id="glyph-0-2">
<path d="M 1.417969 -0.796875 C 1.496094 -0.601562 1.605469 -0.453125 1.753906 -0.359375 C 1.902344 -0.261719 2.082031 -0.210938 2.28125 -0.210938 C 2.59375 -0.210938 2.863281 -0.367188 3.085938 -0.679688 C 3.304688 -0.992188 3.417969 -1.421875 3.417969 -1.980469 C 3.417969 -2.511719 3.300781 -2.910156 3.070312 -3.171875 C 2.839844 -3.4375 2.574219 -3.566406 2.269531 -3.566406 C 2.054688 -3.566406 1.859375 -3.503906 1.683594 -3.371094 C 1.507812 -3.238281 1.417969 -3.109375 1.417969 -2.980469 Z M 0.0390625 1.792969 C 0.3125 1.777344 0.484375 1.71875 0.558594 1.617188 C 0.632812 1.519531 0.667969 1.367188 0.667969 1.15625 L 0.667969 -3.011719 C 0.667969 -3.230469 0.640625 -3.375 0.589844 -3.4375 C 0.535156 -3.5 0.433594 -3.527344 0.285156 -3.527344 C 0.253906 -3.527344 0.226562 -3.527344 0.199219 -3.523438 C 0.171875 -3.519531 0.128906 -3.515625 0.078125 -3.507812 L 0.078125 -3.652344 L 0.492188 -3.785156 C 0.503906 -3.789062 0.796875 -3.886719 1.363281 -4.085938 C 1.378906 -4.085938 1.386719 -4.078125 1.394531 -4.066406 C 1.402344 -4.050781 1.40625 -4.035156 1.40625 -4.019531 L 1.40625 -3.433594 C 1.597656 -3.625 1.765625 -3.765625 1.910156 -3.859375 C 2.171875 -4.019531 2.4375 -4.101562 2.714844 -4.101562 C 3.113281 -4.101562 3.457031 -3.933594 3.742188 -3.59375 C 4.03125 -3.253906 4.175781 -2.785156 4.175781 -2.195312 C 4.175781 -1.617188 4.003906 -1.09375 3.65625 -0.621094 C 3.3125 -0.148438 2.875 0.0859375 2.351562 0.0859375 C 2.191406 0.0859375 2.050781 0.0664062 1.929688 0.0273438 C 1.746094 -0.0351562 1.574219 -0.144531 1.417969 -0.308594 L 1.417969 1.109375 C 1.417969 1.402344 1.46875 1.582031 1.5625 1.648438 C 1.65625 1.714844 1.867188 1.761719 2.1875 1.785156 L 2.1875 1.9375 L 0.0390625 1.9375 Z "/>
</g>
</g>
</defs>
<g fill="rgb(95.686275%, 44.705882%, 71.372549%)" fill-opacity="1">
<use xlink:href="#glyph-0-0" x="30" y="26.666992"/>
<use xlink:href="#glyph-0-1" x="37" y="26.666992"/>
</g>
<g fill="rgb(95.686275%, 44.705882%, 71.372549%)" fill-opacity="1">
<use xlink:href="#glyph-0-2" x="41" y="26.666992"/>
</g>
</svg>
