<?xml version="1.0" encoding="UTF-8"?>
<svg xmlns="http://www.w3.org/2000/svg" xmlns:xlink="http://www.w3.org/1999/xlink" width="1920" height="1080" viewBox="0 0 1920 1080">
<defs>
<g>
<g id="glyph-0-0">
<path d="M 2.546875 -0.199219 C 2.914062 -0.195312 3.191406 -0.257812 3.367188 -0.390625 C 3.539062 -0.523438 3.628906 -0.761719 3.628906 -1.109375 L 3.628906 -1.21875 C 2.863281 -1.214844 2.171875 -1.382812 1.558594 -1.726562 C 0.914062 -2.078125 0.585938 -2.660156 0.570312 -3.480469 C 0.585938 -4.300781 0.914062 -4.886719 1.558594 -5.238281 C 2.171875 -5.570312 2.863281 -5.738281 3.628906 -5.738281 L 3.628906 -5.789062 C 3.628906 -6.140625 3.542969 -6.386719 3.367188 -6.519531 C 3.1875 -6.644531 2.917969 -6.707031 2.546875 -6.699219 L 2.546875 -6.898438 L 5.789062 -6.898438 L 5.789062 -6.699219 C 5.429688 -6.707031 5.160156 -6.644531 4.980469 -6.519531 C 4.800781 -6.386719 4.710938 -6.140625 4.710938 -5.789062 L 4.710938 -5.738281 C 5.488281 -5.738281 6.1875 -5.570312 6.800781 -5.238281 C 7.425781 -4.886719 7.75 -4.300781 7.769531 -3.480469 C 7.75 -2.660156 7.425781 -2.078125 6.800781 -1.726562 C 6.1875 -1.382812 5.488281 -1.214844 4.710938 -1.21875 L 4.710938 -1.109375 C 4.710938 -0.765625 4.800781 -0.523438 4.980469 -0.390625 C 5.160156 -0.257812 5.429688 -0.195312 5.789062 -0.199219 L 5.789062 0 L 2.546875 0 Z M 3.628906 -5.4375 C 2.367188 -5.425781 1.726562 -4.773438 1.710938 -3.480469 C 1.730469 -2.1875 2.367188 -1.53125 3.628906 -1.519531 Z M 4.710938 -1.519531 C 5.964844 -1.53125 6.605469 -2.1875 6.632812 -3.480469 C 6.605469 -4.773438 5.964844 -5.425781 4.710938 -5.4375 Z "/>
</g>
<g id="glyph-0-1">
<path d="M 0 1.25 L 0 0.757812 L 4.996094 0.757812 L 4.996094 1.25 Z "/>
</g>
<g id="glyph-0-2">
<path d="M 1.597656 -0.898438 C 1.679688 -0.675781 1.808594 -0.511719 1.976562 -0.402344 C 2.144531 -0.292969 2.339844 -0.238281 2.570312 -0.238281 C 2.921875 -0.238281 3.21875 -0.414062 3.46875 -0.765625 C 3.71875 -1.113281 3.84375 -1.601562 3.84375 -2.226562 C 3.84375 -2.824219 3.714844 -3.273438 3.453125 -3.570312 C 3.195312 -3.867188 2.894531 -4.015625 2.554688 -4.015625 C 2.3125 -4.015625 2.09375 -3.941406 1.894531 -3.792969 C 1.695312 -3.644531 1.597656 -3.496094 1.597656 -3.355469 Z M 0.0429688 2.015625 C 0.351562 1.996094 0.542969 1.933594 0.628906 1.820312 C 0.710938 1.710938 0.75 1.535156 0.75 1.296875 L 0.75 -3.390625 C 0.75 -3.636719 0.722656 -3.792969 0.660156 -3.863281 C 0.601562 -3.933594 0.488281 -3.96875 0.320312 -3.96875 C 0.285156 -3.96875 0.253906 -3.96875 0.222656 -3.964844 C 0.191406 -3.960938 0.148438 -3.953125 0.0859375 -3.945312 L 0.0859375 -4.105469 L 0.550781 -4.257812 C 0.566406 -4.261719 0.894531 -4.375 1.53125 -4.59375 C 1.546875 -4.59375 1.5625 -4.585938 1.570312 -4.574219 C 1.578125 -4.558594 1.582031 -4.539062 1.582031 -4.523438 L 1.582031 -3.863281 C 1.796875 -4.078125 1.984375 -4.238281 2.148438 -4.339844 C 2.441406 -4.523438 2.742188 -4.613281 3.050781 -4.613281 C 3.5 -4.613281 3.886719 -4.421875 4.210938 -4.039062 C 4.535156 -3.65625 4.695312 -3.132812 4.695312 -2.46875 C 4.695312 -1.820312 4.503906 -1.230469 4.113281 -0.699219 C 3.726562 -0.167969 3.234375 0.0976562 2.648438 0.0976562 C 2.464844 0.0976562 2.304688 0.0742188 2.171875 0.03125 C 1.964844 -0.0390625 1.773438 -0.164062 1.597656 -0.347656 L 1.597656 1.25 C 1.597656 1.578125 1.648438 1.78125 1.757812 1.855469 C 1.867188 1.929688 2.101562 1.980469 2.460938 2.007812 L 2.460938 2.179688 L 0.0429688 2.179688 Z "/>
</g>
</g>
</defs>
<g fill="rgb(95.686275%, 44.705882%, 71.372549%)" fill-opacity="1">
<use xlink:href="#glyph-0-0" x="30" y="27.5"/>
<use xlink:href="#glyph-0-1" x="38" y="27.5"/>
</g>
<g fill="rgb(95.686275%, 44.705882%, 71.372549%)" fill-opacity="1">
<use xlink:href="#glyph-0-2" x="43" y="27.5"/>
</g>
</svg>
