<?xml version="1.0" encoding="UTF-8"?>
<svg xmlns="http://www.w3.org/2000/svg" xmlns:xlink="http://www.w3.org/1999/xlink" width="1920" height="1080" viewBox="0 0 1920 1080">
<defs>
<g>
<g id="glyph-0-0">
<path d="M 0.984375 -2.234375 C 0.988281 -2.230469 0.992188 -2.226562 0.992188 -2.222656 C 0.992188 -2.222656 0.996094 -2.214844 0.996094 -2.207031 L 0.996094 -0.246094 C 0.996094 -0.164062 1.015625 -0.109375 1.0625 -0.0859375 C 1.105469 -0.0625 1.1875 -0.0507812 1.308594 -0.046875 L 1.308594 0 L 0.390625 0 L 0.390625 -0.046875 C 0.523438 -0.0546875 0.609375 -0.0742188 0.648438 -0.101562 C 0.6875 -0.132812 0.710938 -0.195312 0.710938 -0.292969 L 0.710938 -1.800781 C 0.710938 -1.851562 0.703125 -1.890625 0.691406 -1.917969 C 0.675781 -1.945312 0.648438 -1.960938 0.605469 -1.960938 C 0.578125 -1.960938 0.539062 -1.953125 0.496094 -1.9375 C 0.449219 -1.921875 0.410156 -1.902344 0.371094 -1.886719 L 0.371094 -1.933594 L 0.964844 -2.234375 Z "/>
</g>
<g id="glyph-0-1">
<rect x="0" y="0" width="0" height="0" mask="url(#mask-0)"/>
</g>
<g id="glyph-0-2">
<path d="M 0.0078125 -0.046875 C 0.109375 -0.0546875 0.179688 -0.0703125 0.210938 -0.0976562 C 0.246094 -0.125 0.261719 -0.183594 0.261719 -0.273438 L 0.261719 -1.902344 C 0.261719 -1.980469 0.25 -2.03125 0.222656 -2.050781 C 0.195312 -2.070312 0.160156 -2.082031 0.109375 -2.082031 C 0.0898438 -2.082031 0.0703125 -2.082031 0.0585938 -2.078125 C 0.0429688 -2.078125 0.0234375 -2.078125 0.0078125 -2.074219 L 0.0078125 -2.121094 L 0.152344 -2.160156 C 0.265625 -2.1875 0.359375 -2.214844 0.4375 -2.242188 C 0.484375 -2.257812 0.511719 -2.265625 0.519531 -2.265625 C 0.527344 -2.265625 0.53125 -2.265625 0.53125 -2.261719 C 0.535156 -2.261719 0.535156 -2.253906 0.535156 -2.246094 L 0.535156 -0.875 L 0.984375 -1.273438 C 1.019531 -1.300781 1.039062 -1.324219 1.050781 -1.34375 C 1.0625 -1.359375 1.070312 -1.375 1.070312 -1.386719 C 1.070312 -1.414062 1.058594 -1.429688 1.03125 -1.433594 C 1.007812 -1.441406 0.964844 -1.445312 0.902344 -1.449219 L 0.902344 -1.496094 L 1.582031 -1.496094 L 1.582031 -1.449219 C 1.460938 -1.441406 1.359375 -1.417969 1.289062 -1.378906 C 1.214844 -1.335938 1.070312 -1.21875 0.863281 -1.027344 L 0.765625 -0.941406 L 1.066406 -0.550781 C 1.222656 -0.351562 1.335938 -0.21875 1.414062 -0.152344 C 1.492188 -0.0859375 1.578125 -0.0507812 1.664062 -0.0429688 L 1.664062 0 L 0.941406 0 L 0.941406 -0.046875 L 0.996094 -0.046875 C 1.015625 -0.0507812 1.03125 -0.0546875 1.046875 -0.0585938 C 1.0625 -0.0664062 1.070312 -0.078125 1.070312 -0.09375 C 1.070312 -0.105469 1.066406 -0.117188 1.0625 -0.125 C 1.058594 -0.136719 1.050781 -0.148438 1.039062 -0.160156 L 0.535156 -0.824219 L 0.535156 -0.222656 C 0.535156 -0.148438 0.5625 -0.0976562 0.617188 -0.0742188 C 0.652344 -0.0585938 0.707031 -0.0507812 0.785156 -0.046875 L 0.785156 0 L 0.0078125 0 Z "/>
</g>
<g id="glyph-0-3">
<path d="M 0.0351562 -0.191406 C 0.0351562 -0.25 0.0507812 -0.292969 0.0820312 -0.320312 C 0.117188 -0.34375 0.152344 -0.359375 0.191406 -0.359375 C 0.265625 -0.359375 0.320312 -0.3125 0.355469 -0.21875 C 0.390625 -0.125 0.429688 -0.078125 0.46875 -0.078125 C 0.511719 -0.078125 0.542969 -0.0976562 0.5625 -0.136719 C 0.578125 -0.175781 0.585938 -0.242188 0.585938 -0.335938 L 0.585938 -1.84375 C 0.585938 -1.96875 0.566406 -2.046875 0.527344 -2.082031 C 0.484375 -2.117188 0.402344 -2.136719 0.277344 -2.144531 L 0.277344 -2.207031 L 1.234375 -2.207031 L 1.234375 -2.144531 C 1.105469 -2.136719 1.019531 -2.113281 0.980469 -2.074219 C 0.941406 -2.035156 0.925781 -1.957031 0.925781 -1.84375 L 0.925781 -0.621094 C 0.925781 -0.398438 0.871094 -0.230469 0.761719 -0.125 C 0.65625 -0.015625 0.523438 0.0390625 0.363281 0.0390625 C 0.261719 0.0390625 0.179688 0.015625 0.121094 -0.03125 C 0.0625 -0.078125 0.0351562 -0.132812 0.0351562 -0.191406 Z "/>
</g>
</g>
<image id="source-78" x="0" y="0" width="0" height="0"/>
<mask id="mask-0">
<use xlink:href="#source-78"/>
</mask>
</defs>
<g fill="rgb(100%, 100%, 100%)" fill-opacity="1">
<use xlink:href="#glyph-0-0" x="30" y="22.5"/>
<use xlink:href="#glyph-0-1" x="32" y="22.5"/>
<use xlink:href="#glyph-0-2" x="33" y="22.5"/>
<use xlink:href="#glyph-0-3" x="35" y="22.5"/>
</g>
</svg>
