<?xml version="1.0" encoding="UTF-8"?>
<svg xmlns="http://www.w3.org/2000/svg" xmlns:xlink="http://www.w3.org/1999/xlink" width="1920" height="1080" viewBox="0 0 1920 1080">
<defs>
<g>
<g id="glyph-0-0">
<path d="M 0.125 -0.199219 C 0.535156 -0.242188 0.796875 -0.316406 0.917969 -0.421875 C 1.039062 -0.523438 1.101562 -0.785156 1.101562 -1.203125 L 1.101562 -6.148438 C 1.101562 -6.542969 1.042969 -6.796875 0.921875 -6.917969 C 0.804688 -7.039062 0.535156 -7.117188 0.125 -7.144531 L 0.125 -7.351562 L 6.027344 -7.351562 L 6.066406 -5.757812 L 5.78125 -5.757812 C 5.6875 -6.25 5.546875 -6.566406 5.359375 -6.710938 C 5.171875 -6.855469 4.753906 -6.925781 4.101562 -6.925781 L 2.59375 -6.925781 C 2.429688 -6.925781 2.328125 -6.902344 2.292969 -6.847656 C 2.253906 -6.796875 2.234375 -6.699219 2.234375 -6.554688 L 2.234375 -4.074219 L 3.945312 -4.074219 C 4.417969 -4.074219 4.71875 -4.144531 4.851562 -4.285156 C 4.980469 -4.425781 5.085938 -4.710938 5.164062 -5.144531 L 5.425781 -5.144531 L 5.425781 -2.570312 L 5.164062 -2.570312 C 5.082031 -3 4.976562 -3.285156 4.84375 -3.425781 C 4.714844 -3.566406 4.414062 -3.632812 3.945312 -3.632812 L 2.234375 -3.632812 L 2.234375 -0.882812 C 2.234375 -0.664062 2.304688 -0.535156 2.445312 -0.492188 C 2.582031 -0.453125 3 -0.433594 3.695312 -0.433594 C 4.445312 -0.433594 5 -0.515625 5.359375 -0.679688 C 5.71875 -0.84375 6.039062 -1.242188 6.324219 -1.878906 L 6.632812 -1.878906 L 6.128906 0 L 0.125 0 Z "/>
</g>
<g id="glyph-0-1">
<rect x="0" y="0" width="0" height="0" mask="url(#mask-0)"/>
</g>
<g id="glyph-0-2">
<path d="M 5.941406 -2.066406 L 5.941406 -1.308594 L 0.332031 -1.308594 L 0.332031 -2.066406 Z M 5.941406 -4.308594 L 5.941406 -3.546875 L 0.332031 -3.546875 L 0.332031 -4.308594 Z "/>
</g>
<g id="glyph-0-3">
<path d="M 0.179688 -0.140625 C 0.460938 -0.167969 0.648438 -0.214844 0.742188 -0.28125 C 0.886719 -0.386719 0.960938 -0.597656 0.960938 -0.910156 L 0.960938 -3.714844 C 0.960938 -3.984375 0.925781 -4.160156 0.855469 -4.242188 C 0.785156 -4.324219 0.667969 -4.367188 0.503906 -4.367188 C 0.429688 -4.367188 0.371094 -4.363281 0.332031 -4.355469 C 0.296875 -4.347656 0.25 -4.335938 0.199219 -4.316406 L 0.199219 -4.507812 L 0.589844 -4.636719 C 0.730469 -4.683594 0.964844 -4.769531 1.285156 -4.894531 C 1.605469 -5.015625 1.777344 -5.078125 1.796875 -5.078125 C 1.8125 -5.078125 1.824219 -5.070312 1.828125 -5.050781 C 1.832031 -5.03125 1.832031 -5 1.832031 -4.949219 L 1.832031 -4.214844 C 2.191406 -4.539062 2.5 -4.765625 2.761719 -4.890625 C 3.023438 -5.015625 3.289062 -5.078125 3.5625 -5.078125 C 3.9375 -5.078125 4.234375 -4.953125 4.453125 -4.699219 C 4.570312 -4.5625 4.664062 -4.375 4.742188 -4.140625 C 5.007812 -4.410156 5.242188 -4.609375 5.441406 -4.742188 C 5.785156 -4.964844 6.136719 -5.078125 6.492188 -5.078125 C 7.074219 -5.078125 7.464844 -4.839844 7.660156 -4.367188 C 7.773438 -4.097656 7.828125 -3.675781 7.828125 -3.097656 L 7.828125 -0.847656 C 7.828125 -0.589844 7.886719 -0.414062 8 -0.324219 C 8.113281 -0.230469 8.316406 -0.171875 8.613281 -0.140625 L 8.613281 0 L 6.167969 0 L 6.167969 -0.152344 C 6.484375 -0.179688 6.691406 -0.242188 6.789062 -0.339844 C 6.890625 -0.4375 6.9375 -0.636719 6.9375 -0.9375 L 6.9375 -3.277344 C 6.9375 -3.628906 6.902344 -3.886719 6.824219 -4.050781 C 6.691406 -4.347656 6.429688 -4.496094 6.039062 -4.496094 C 5.804688 -4.496094 5.570312 -4.417969 5.339844 -4.265625 C 5.203125 -4.175781 5.039062 -4.027344 4.84375 -3.828125 L 4.84375 -1.050781 C 4.84375 -0.757812 4.894531 -0.535156 5 -0.386719 C 5.101562 -0.234375 5.320312 -0.152344 5.652344 -0.140625 L 5.652344 0 L 3.164062 0 L 3.164062 -0.140625 C 3.507812 -0.183594 3.726562 -0.269531 3.820312 -0.390625 C 3.914062 -0.511719 3.960938 -0.816406 3.960938 -1.296875 L 3.960938 -2.816406 C 3.960938 -3.371094 3.925781 -3.757812 3.851562 -3.964844 C 3.730469 -4.320312 3.480469 -4.496094 3.09375 -4.496094 C 2.871094 -4.496094 2.65625 -4.4375 2.441406 -4.316406 C 2.226562 -4.195312 2.039062 -4.035156 1.878906 -3.839844 L 1.878906 -0.875 C 1.878906 -0.597656 1.925781 -0.410156 2.019531 -0.304688 C 2.117188 -0.199219 2.324219 -0.144531 2.648438 -0.140625 L 2.648438 0 L 0.179688 0 Z "/>
</g>
<g id="glyph-0-4">
<path d="M 0.730469 -4.253906 C 0.730469 -4.515625 0.914062 -4.683594 1.28125 -4.761719 C 1.859375 -4.890625 2.289062 -5.046875 2.570312 -5.230469 C 2.285156 -5.398438 1.851562 -5.5625 1.265625 -5.710938 C 0.910156 -5.800781 0.730469 -5.957031 0.730469 -6.179688 C 0.730469 -6.300781 0.769531 -6.398438 0.847656 -6.464844 C 0.921875 -6.535156 1.011719 -6.570312 1.113281 -6.570312 C 1.261719 -6.570312 1.453125 -6.433594 1.6875 -6.160156 C 1.921875 -5.886719 2.242188 -5.632812 2.648438 -5.398438 L 2.648438 -5.539062 C 2.648438 -5.839844 2.597656 -6.140625 2.503906 -6.4375 C 2.40625 -6.738281 2.359375 -6.953125 2.359375 -7.074219 C 2.359375 -7.214844 2.398438 -7.324219 2.476562 -7.398438 C 2.554688 -7.472656 2.648438 -7.507812 2.757812 -7.507812 C 2.882812 -7.507812 2.980469 -7.464844 3.046875 -7.382812 C 3.113281 -7.300781 3.148438 -7.195312 3.148438 -7.070312 C 3.148438 -6.984375 3.097656 -6.789062 2.996094 -6.480469 C 2.894531 -6.171875 2.847656 -5.800781 2.855469 -5.371094 C 3.152344 -5.585938 3.332031 -5.722656 3.394531 -5.773438 C 3.460938 -5.828125 3.539062 -5.902344 3.628906 -6.003906 C 3.890625 -6.292969 4.050781 -6.464844 4.113281 -6.511719 C 4.175781 -6.5625 4.265625 -6.585938 4.378906 -6.585938 C 4.488281 -6.585938 4.578125 -6.546875 4.652344 -6.464844 C 4.726562 -6.386719 4.761719 -6.292969 4.761719 -6.179688 C 4.761719 -5.953125 4.601562 -5.804688 4.273438 -5.734375 C 3.730469 -5.617188 3.289062 -5.445312 2.941406 -5.21875 L 3.03125 -5.164062 C 3.316406 -4.996094 3.738281 -4.855469 4.292969 -4.742188 C 4.609375 -4.675781 4.769531 -4.519531 4.769531 -4.269531 C 4.769531 -4.136719 4.722656 -4.035156 4.628906 -3.972656 C 4.535156 -3.910156 4.441406 -3.878906 4.351562 -3.878906 C 4.199219 -3.878906 3.992188 -4.035156 3.730469 -4.347656 C 3.472656 -4.660156 3.203125 -4.886719 2.929688 -5.023438 L 2.855469 -5.0625 L 2.855469 -4.984375 C 2.855469 -4.558594 2.90625 -4.203125 3.007812 -3.917969 C 3.109375 -3.636719 3.164062 -3.460938 3.164062 -3.394531 C 3.164062 -3.277344 3.121094 -3.171875 3.039062 -3.078125 C 2.957031 -2.984375 2.855469 -2.941406 2.722656 -2.941406 C 2.605469 -2.941406 2.511719 -2.984375 2.441406 -3.070312 C 2.371094 -3.15625 2.339844 -3.261719 2.339844 -3.386719 C 2.339844 -3.417969 2.398438 -3.644531 2.523438 -4.066406 C 2.644531 -4.488281 2.6875 -4.792969 2.648438 -4.984375 L 2.632812 -5.0625 C 2.324219 -4.890625 2.035156 -4.65625 1.769531 -4.351562 C 1.5 -4.046875 1.285156 -3.894531 1.117188 -3.894531 C 0.988281 -3.894531 0.890625 -3.933594 0.828125 -4.007812 C 0.765625 -4.085938 0.730469 -4.167969 0.730469 -4.253906 Z "/>
</g>
<g id="glyph-0-5">
<path d="M 2.761719 -5.117188 C 3.214844 -5.117188 3.601562 -5 3.929688 -4.765625 C 4.257812 -4.53125 4.421875 -4.277344 4.421875 -4 C 4.421875 -3.878906 4.378906 -3.769531 4.296875 -3.664062 C 4.214844 -3.5625 4.085938 -3.511719 3.910156 -3.511719 C 3.785156 -3.511719 3.671875 -3.554688 3.578125 -3.640625 C 3.480469 -3.726562 3.414062 -3.855469 3.367188 -4.019531 L 3.304688 -4.28125 C 3.257812 -4.472656 3.175781 -4.609375 3.058594 -4.6875 C 2.941406 -4.761719 2.78125 -4.800781 2.585938 -4.800781 C 2.175781 -4.800781 1.828125 -4.621094 1.542969 -4.261719 C 1.257812 -3.902344 1.117188 -3.421875 1.117188 -2.828125 C 1.117188 -2.28125 1.273438 -1.789062 1.585938 -1.355469 C 1.898438 -0.921875 2.320312 -0.707031 2.855469 -0.707031 C 3.230469 -0.707031 3.5625 -0.828125 3.855469 -1.074219 C 4.023438 -1.214844 4.210938 -1.4375 4.421875 -1.746094 L 4.574219 -1.65625 C 4.367188 -1.222656 4.148438 -0.878906 3.921875 -0.625 C 3.484375 -0.140625 2.976562 0.101562 2.402344 0.101562 C 1.839844 0.101562 1.339844 -0.121094 0.90625 -0.5625 C 0.472656 -1.007812 0.253906 -1.613281 0.253906 -2.375 C 0.253906 -3.125 0.492188 -3.769531 0.964844 -4.308594 C 1.4375 -4.847656 2.039062 -5.117188 2.761719 -5.117188 Z "/>
</g>
<g id="glyph-0-6">
<path d="M 3.902344 -7.773438 L 4.121094 -7.773438 L 7.707031 0 L 0.308594 0 Z M 1.113281 -0.464844 L 6.179688 -0.464844 L 3.644531 -5.988281 Z "/>
</g>
<g id="glyph-0-7">
<path d="M 0.21875 -7.351562 L 6.492188 -7.351562 L 6.554688 -5.464844 L 6.289062 -5.464844 C 6.15625 -6.058594 5.992188 -6.441406 5.792969 -6.621094 C 5.589844 -6.800781 5.167969 -6.890625 4.523438 -6.890625 L 3.90625 -6.890625 L 3.90625 -1.203125 C 3.90625 -0.773438 3.972656 -0.507812 4.105469 -0.402344 C 4.238281 -0.300781 4.535156 -0.234375 4.984375 -0.199219 L 4.984375 0 L 1.746094 0 L 1.746094 -0.199219 C 2.214844 -0.238281 2.511719 -0.316406 2.625 -0.433594 C 2.742188 -0.554688 2.800781 -0.855469 2.800781 -1.335938 L 2.800781 -6.890625 L 2.179688 -6.890625 C 1.566406 -6.890625 1.148438 -6.800781 0.925781 -6.625 C 0.703125 -6.445312 0.535156 -6.058594 0.421875 -5.464844 L 0.152344 -5.464844 Z "/>
</g>
</g>
<image id="source-25" x="0" y="0" width="0" height="0"/>
<mask id="mask-0">
<use xlink:href="#source-25"/>
</mask>
</defs>
<g fill="rgb(100%, 100%, 100%)" fill-opacity="1">
<use xlink:href="#glyph-0-0" x="30" y="28.333008"/>
<use xlink:href="#glyph-0-1" x="37" y="28.333008"/>
<use xlink:href="#glyph-0-2" x="40" y="28.333008"/>
<use xlink:href="#glyph-0-1" x="46" y="28.333008"/>
<use xlink:href="#glyph-0-3" x="49" y="28.333008"/>
<use xlink:href="#glyph-0-1" x="58" y="28.333008"/>
<use xlink:href="#glyph-0-4" x="61" y="28.333008"/>
<use xlink:href="#glyph-0-1" x="67" y="28.333008"/>
<use xlink:href="#glyph-0-5" x="70" y="28.333008"/>
<use xlink:href="#glyph-0-1" x="75" y="28.333008"/>
<use xlink:href="#glyph-0-4" x="78" y="28.333008"/>
<use xlink:href="#glyph-0-1" x="84" y="28.333008"/>
</g>
<g fill="rgb(100%, 100%, 100%)" fill-opacity="1">
<use xlink:href="#glyph-0-6" x="87" y="28.333008"/>
</g>
<g fill="rgb(100%, 100%, 100%)" fill-opacity="1">
<use xlink:href="#glyph-0-7" x="95" y="28.333008"/>
</g>
</svg>
