<?xml version="1.0" encoding="UTF-8"?>
<svg xmlns="http://www.w3.org/2000/svg" xmlns:xlink="http://www.w3.org/1999/xlink" width="1920" height="1080" viewBox="0 0 1920 1080">
<defs>
<g>
<g id="glyph-0-0">
<path d="M 0.691406 -1.835938 L 0.691406 -1.785156 C 0.636719 -1.785156 0.597656 -1.777344 0.574219 -1.769531 C 0.53125 -1.753906 0.511719 -1.726562 0.511719 -1.6875 C 0.511719 -1.667969 0.515625 -1.652344 0.519531 -1.632812 C 0.523438 -1.617188 0.53125 -1.59375 0.542969 -1.566406 L 0.945312 -0.523438 L 1.238281 -1.308594 L 1.109375 -1.640625 C 1.085938 -1.703125 1.046875 -1.746094 1 -1.765625 C 0.96875 -1.777344 0.925781 -1.785156 0.867188 -1.785156 L 0.867188 -1.835938 L 1.609375 -1.835938 L 1.609375 -1.785156 C 1.539062 -1.785156 1.492188 -1.78125 1.464844 -1.769531 C 1.425781 -1.753906 1.402344 -1.722656 1.402344 -1.675781 C 1.402344 -1.660156 1.40625 -1.644531 1.410156 -1.632812 C 1.414062 -1.621094 1.421875 -1.597656 1.4375 -1.558594 L 1.835938 -0.515625 L 2.183594 -1.460938 C 2.203125 -1.511719 2.21875 -1.558594 2.226562 -1.601562 C 2.230469 -1.625 2.230469 -1.644531 2.230469 -1.660156 C 2.230469 -1.710938 2.207031 -1.746094 2.160156 -1.765625 C 2.132812 -1.777344 2.089844 -1.785156 2.035156 -1.785156 L 2.035156 -1.835938 L 2.585938 -1.835938 L 2.585938 -1.785156 C 2.539062 -1.777344 2.5 -1.765625 2.472656 -1.753906 C 2.425781 -1.726562 2.390625 -1.679688 2.367188 -1.617188 L 2.070312 -0.789062 L 1.957031 -0.472656 L 1.789062 0.03125 L 1.746094 0.03125 L 1.636719 -0.289062 L 1.304688 -1.144531 L 0.878906 0.03125 L 0.835938 0.03125 L 0.636719 -0.546875 L 0.398438 -1.195312 C 0.300781 -1.460938 0.230469 -1.625 0.191406 -1.6875 C 0.152344 -1.75 0.09375 -1.78125 0.0117188 -1.785156 L 0.0117188 -1.835938 Z "/>
</g>
<g id="glyph-0-1">
<path d="M 0.550781 -0.949219 C 0.75 -0.957031 0.894531 -0.980469 0.980469 -1.011719 C 1.128906 -1.074219 1.203125 -1.1875 1.203125 -1.355469 C 1.203125 -1.515625 1.136719 -1.625 1.003906 -1.683594 C 0.933594 -1.714844 0.839844 -1.730469 0.722656 -1.730469 C 0.644531 -1.730469 0.597656 -1.726562 0.578125 -1.714844 C 0.5625 -1.703125 0.550781 -1.675781 0.550781 -1.636719 Z M 0.03125 -0.0507812 C 0.136719 -0.0585938 0.203125 -0.0820312 0.230469 -0.113281 C 0.257812 -0.144531 0.269531 -0.21875 0.269531 -0.332031 L 0.269531 -1.535156 C 0.269531 -1.632812 0.253906 -1.699219 0.226562 -1.726562 C 0.195312 -1.757812 0.132812 -1.777344 0.03125 -1.785156 L 0.03125 -1.835938 L 0.800781 -1.835938 C 0.960938 -1.835938 1.09375 -1.816406 1.199219 -1.777344 C 1.402344 -1.699219 1.503906 -1.558594 1.503906 -1.351562 C 1.503906 -1.214844 1.457031 -1.109375 1.367188 -1.035156 C 1.277344 -0.960938 1.15625 -0.910156 1.003906 -0.886719 L 1.574219 -0.183594 C 1.609375 -0.140625 1.644531 -0.109375 1.679688 -0.0898438 C 1.714844 -0.0703125 1.761719 -0.0546875 1.816406 -0.0507812 L 1.816406 0 L 1.367188 0 L 0.707031 -0.855469 L 0.550781 -0.847656 L 0.550781 -0.300781 C 0.550781 -0.199219 0.566406 -0.132812 0.597656 -0.105469 C 0.628906 -0.078125 0.699219 -0.0585938 0.804688 -0.0507812 L 0.804688 0 L 0.03125 0 Z "/>
</g>
<g id="glyph-0-2">
<path d="M 1.027344 -1.871094 C 1.136719 -1.871094 1.242188 -1.855469 1.34375 -1.824219 C 1.449219 -1.796875 1.507812 -1.78125 1.523438 -1.78125 C 1.5625 -1.78125 1.59375 -1.789062 1.609375 -1.804688 C 1.625 -1.820312 1.640625 -1.839844 1.652344 -1.871094 L 1.710938 -1.871094 L 1.734375 -1.285156 L 1.671875 -1.285156 C 1.613281 -1.421875 1.554688 -1.519531 1.496094 -1.585938 C 1.386719 -1.703125 1.242188 -1.761719 1.066406 -1.761719 C 0.890625 -1.761719 0.734375 -1.691406 0.597656 -1.558594 C 0.460938 -1.421875 0.394531 -1.199219 0.394531 -0.890625 C 0.394531 -0.632812 0.460938 -0.433594 0.597656 -0.289062 C 0.730469 -0.144531 0.898438 -0.0742188 1.097656 -0.0742188 C 1.128906 -0.0742188 1.167969 -0.078125 1.214844 -0.0859375 C 1.257812 -0.0898438 1.300781 -0.101562 1.34375 -0.113281 C 1.410156 -0.136719 1.449219 -0.15625 1.464844 -0.171875 C 1.480469 -0.1875 1.492188 -0.210938 1.492188 -0.238281 L 1.492188 -0.683594 C 1.492188 -0.789062 1.476562 -0.855469 1.445312 -0.882812 C 1.414062 -0.910156 1.347656 -0.925781 1.246094 -0.933594 L 1.246094 -0.984375 L 1.953125 -0.984375 L 1.953125 -0.933594 C 1.886719 -0.929688 1.839844 -0.914062 1.816406 -0.898438 C 1.777344 -0.867188 1.761719 -0.808594 1.761719 -0.71875 L 1.761719 -0.171875 C 1.761719 -0.140625 1.679688 -0.0976562 1.519531 -0.0429688 C 1.359375 0.0117188 1.207031 0.0390625 1.058594 0.0390625 C 0.789062 0.0390625 0.558594 -0.0390625 0.375 -0.199219 C 0.167969 -0.371094 0.0664062 -0.605469 0.0664062 -0.902344 C 0.0664062 -1.160156 0.148438 -1.378906 0.3125 -1.566406 C 0.492188 -1.769531 0.730469 -1.871094 1.027344 -1.871094 Z "/>
</g>
</g>
</defs>
<g fill="rgb(100%, 100%, 0%)" fill-opacity="1">
<use xlink:href="#glyph-0-0" x="30" y="22.083008"/>
<use xlink:href="#glyph-0-1" x="33" y="22.083008"/>
<use xlink:href="#glyph-0-2" x="35" y="22.083008"/>
</g>
</svg>
