<?xml version="1.0" encoding="UTF-8"?>
<svg xmlns="http://www.w3.org/2000/svg" xmlns:xlink="http://www.w3.org/1999/xlink" width="1920" height="1080" viewBox="0 0 1920 1080">
<defs>
<g>
<g id="glyph-0-0">
<path d="M -0.00390625 0 L 1.140625 -2.984375 L 1.566406 -2.984375 L 2.789062 0 Z M 0.542969 -0.351562 L 2.203125 -0.351562 L 1.554688 -2.050781 C 1.460938 -2.304688 1.390625 -2.511719 1.34375 -2.667969 C 1.308594 -2.484375 1.253906 -2.296875 1.183594 -2.101562 Z "/>
</g>
<g id="glyph-0-1">
<rect x="0" y="0" width="0" height="0" mask="url(#mask-0)"/>
</g>
<g id="glyph-0-2">
<path d="M 1.550781 0 L 1.1875 0 L 1.1875 -2.332031 C 1.097656 -2.25 0.980469 -2.164062 0.839844 -2.082031 C 0.695312 -1.996094 0.566406 -1.933594 0.453125 -1.890625 L 0.453125 -2.246094 C 0.660156 -2.34375 0.835938 -2.460938 0.992188 -2.597656 C 1.144531 -2.734375 1.253906 -2.867188 1.316406 -2.996094 L 1.550781 -2.996094 Z "/>
</g>
<g id="glyph-0-3">
<path d="M 0.304688 0 L 0.304688 -2.984375 L 0.699219 -2.984375 L 0.699219 -1.503906 L 2.179688 -2.984375 L 2.714844 -2.984375 L 1.464844 -1.773438 L 2.769531 0 L 2.25 0 L 1.1875 -1.507812 L 0.699219 -1.035156 L 0.699219 0 Z "/>
</g>
</g>
<image id="source-158" x="0" y="0" width="0" height="0"/>
<mask id="mask-0">
<use xlink:href="#source-158"/>
</mask>
</defs>
<g fill="rgb(100%, 100%, 0%)" fill-opacity="1">
<use xlink:href="#glyph-0-0" x="30" y="23.772461"/>
<use xlink:href="#glyph-0-1" x="33" y="23.772461"/>
<use xlink:href="#glyph-0-2" x="34" y="23.772461"/>
<use xlink:href="#glyph-0-1" x="36" y="23.772461"/>
</g>
<g fill="rgb(100%, 100%, 0%)" fill-opacity="1">
<use xlink:href="#glyph-0-3" x="37" y="23.772461"/>
</g>
</svg>
